<svg width="180" height="54" viewBox="0 0 180 54" fill="none" xmlns="http://www.w3.org/2000/svg">
<path d="M165.666 0.324148H14.3422C13.7906 0.324148 13.2456 0.324148 12.6955 0.326815C12.235 0.329481 11.7781 0.337228 11.3132 0.343748C10.3031 0.354284 9.29543 0.43305 8.29888 0.579361C7.30373 0.728858 6.33976 1.0107 5.43956 1.41536C4.54046 1.82344 3.71893 2.3537 3.00477 2.98691C2.28686 3.61833 1.68842 4.34817 1.23248 5.14836C0.775271 5.94696 0.458244 6.80273 0.292343 7.68612C0.124866 8.56839 0.0347448 9.46084 0.0227888 10.3555C0.00882972 10.7643 0.00735559 11.1744 0 11.5833V42.4023C0.00735559 42.8163 0.00882972 43.2173 0.0227888 43.6315C0.0347485 44.5261 0.12487 45.4185 0.292343 46.3007C0.457785 47.1846 0.774831 48.0409 1.23248 48.8397C1.68821 49.6374 2.28673 50.3642 3.00477 50.9921C3.71622 51.6282 4.53828 52.1588 5.43956 52.5637C6.33975 52.9695 7.30362 53.253 8.29888 53.4048C9.2956 53.55 10.3032 53.6288 11.3132 53.6405C11.7781 53.6496 12.235 53.6548 12.6955 53.6548C13.2456 53.6575 13.7906 53.6575 14.3422 53.6575H165.666C166.207 53.6575 166.756 53.6575 167.296 53.6548C167.755 53.6548 168.225 53.6496 168.683 53.6405C169.691 53.6294 170.697 53.5506 171.692 53.4048C172.69 53.2519 173.657 52.9685 174.562 52.5637C175.462 52.1586 176.284 51.6279 176.995 50.9921C177.711 50.3618 178.311 49.6354 178.772 48.8397C179.226 48.0403 179.54 47.1841 179.703 46.3007C179.871 45.4183 179.964 44.5261 179.982 43.6315C179.988 43.2173 179.988 42.8163 179.988 42.4023C180 41.9179 180 41.4361 180 40.9439V13.039C180 12.5507 180 12.0663 179.988 11.5833C179.988 11.1744 179.988 10.7643 179.982 10.3554C179.964 9.46071 179.871 8.56846 179.703 7.68607C179.54 6.80319 179.226 5.94749 178.772 5.14831C177.843 3.54441 176.371 2.23885 174.562 1.41524C173.657 1.01157 172.69 0.729802 171.692 0.579241C170.697 0.432285 169.691 0.353492 168.683 0.343561C168.225 0.337055 167.755 0.329241 167.296 0.326641C166.756 0.323975 166.207 0.323975 165.666 0.323975V0.324148Z" fill="white"/>
<path d="M12.5733 52.4948C12.1142 52.4948 11.6662 52.4896 11.2107 52.4805C10.2671 52.4696 9.32572 52.3969 8.39426 52.263C7.52572 52.1306 6.68434 51.8844 5.89787 51.5323C5.11861 51.1832 4.40786 50.7255 3.79286 50.1766C3.16895 49.6342 2.64951 49.0051 2.25514 48.3142C1.85642 47.6188 1.58049 46.8735 1.43694 46.1041C1.28193 45.2774 1.19806 44.4415 1.18606 43.6036C1.17651 43.3223 1.164 42.3859 1.164 42.3859V11.5787C1.164 11.5787 1.17732 10.6566 1.18614 10.3857C1.19763 9.54913 1.28101 8.71451 1.43556 7.88911C1.57937 7.11764 1.85552 6.37015 2.25445 5.67251C2.64737 4.98212 3.16392 4.35254 3.78407 3.80819C4.40352 3.25866 5.11654 2.79854 5.89713 2.44461C6.68179 2.09372 7.52158 1.84918 8.38837 1.71921C9.32289 1.58393 10.2675 1.5108 11.2144 1.50041L12.574 1.48413H167.427L168.802 1.50107C169.741 1.51094 170.677 1.58342 171.603 1.7179C172.478 1.84951 173.327 2.09575 174.12 2.44852C175.684 3.1618 176.957 4.29027 177.759 5.67577C178.152 6.36859 178.424 7.10998 178.566 7.87479C178.722 8.70696 178.81 9.54814 178.828 10.3916C178.832 10.7693 178.832 11.175 178.832 11.5787C178.844 12.0788 178.844 12.5548 178.844 13.0347V40.9454C178.844 41.43 178.844 41.9027 178.832 42.3794C178.832 42.813 178.832 43.2103 178.826 43.6192C178.809 44.4476 178.723 45.2738 178.569 46.0911C178.428 46.866 178.154 47.6171 177.755 48.3182C177.358 49.0016 176.841 49.6252 176.225 50.1662C175.609 50.718 174.897 51.1785 174.116 51.5298C173.325 51.8845 172.477 52.1317 171.603 52.263C170.671 52.3977 169.73 52.4704 168.786 52.4805C168.345 52.4896 167.883 52.4948 167.434 52.4948L165.801 52.4975L12.5733 52.4948Z" fill="white"/>
<path d="M43.7297 27.3916C43.744 26.2787 44.0396 25.1876 44.589 24.2196C45.1383 23.2517 45.9236 22.4384 46.8717 21.8555C46.2694 20.9953 45.4748 20.2874 44.5511 19.788C43.6273 19.2886 42.5998 19.0115 41.5502 18.9786C39.3112 18.7436 37.1406 20.3184 35.9997 20.3184C34.8366 20.3184 33.08 19.002 31.1883 19.0409C29.9648 19.0804 28.7723 19.4362 27.7271 20.0736C26.682 20.711 25.8197 21.6083 25.2244 22.678C22.6458 27.1426 24.5692 33.704 27.0394 37.3128C28.2752 39.0799 29.7196 41.0539 31.6095 40.9839C33.459 40.9072 34.1497 39.8046 36.3821 39.8046C38.5938 39.8046 39.2418 40.9839 41.1701 40.9394C43.1546 40.9072 44.4049 39.1644 45.5974 37.3805C46.4854 36.1214 47.1687 34.7297 47.622 33.2572C46.469 32.7695 45.4851 31.9533 44.793 30.9102C44.1008 29.8672 43.731 28.6434 43.7297 27.3916Z" fill="black"/>
<path d="M40.0875 16.6053C41.1695 15.3064 41.7026 13.6368 41.5735 11.9512C39.9204 12.1248 38.3934 12.9149 37.2967 14.164C36.7605 14.7742 36.3499 15.4841 36.0882 16.2531C35.8266 17.0222 35.719 17.8352 35.7718 18.6458C36.5986 18.6544 37.4166 18.4751 38.1642 18.1217C38.9117 17.7682 39.5693 17.2498 40.0875 16.6053Z" fill="black"/>
<path d="M67.1076 36.5103H60.7964L59.2808 40.9856H56.6076L62.5854 24.4282H65.3628L71.3406 40.9856H68.6219L67.1076 36.5103ZM61.45 34.4452H66.4527L63.9865 27.1822H63.9175L61.45 34.4452Z" fill="black"/>
<path d="M84.2508 34.9504C84.2508 38.7017 82.243 41.1119 79.213 41.1119C78.4455 41.152 77.6822 40.9752 77.0104 40.6017C76.3387 40.2282 75.7858 39.673 75.4149 38.9999H75.3575V44.979H72.8797V28.9139H75.2781V30.9217H75.3237C75.7117 30.2518 76.274 29.6995 76.9508 29.3237C77.6276 28.9479 78.3937 28.7627 79.1675 28.7876C82.2312 28.7876 84.2508 31.2095 84.2508 34.9504ZM81.7039 34.9504C81.7039 32.5064 80.4409 30.8996 78.5138 30.8996C76.6206 30.8996 75.3471 32.5402 75.3471 34.9504C75.3471 37.3827 76.6206 39.0116 78.5138 39.0116C80.4409 39.0116 81.7039 37.4165 81.7039 34.9504Z" fill="black"/>
<path d="M97.5373 34.9504C97.5373 38.7017 95.5295 41.1118 92.4995 41.1118C91.732 41.152 90.9686 40.9752 90.2969 40.6017C89.6252 40.2282 89.0722 39.673 88.7013 38.9998H88.644V44.979H86.1661V28.9139H88.5646V30.9217H88.6101C88.9981 30.2518 89.5604 29.6995 90.2372 29.3237C90.9141 28.9479 91.6801 28.7627 92.4539 28.7876C95.5177 28.7876 97.5373 31.2095 97.5373 34.9504ZM94.9904 34.9504C94.9904 32.5064 93.7274 30.8996 91.8003 30.8996C89.9071 30.8996 88.6336 32.5402 88.6336 34.9504C88.6336 37.3827 89.9071 39.0116 91.8003 39.0116C93.7274 39.0116 94.9904 37.4165 94.9904 34.9504H94.9904Z" fill="black"/>
<path d="M106.318 36.3722C106.502 38.0142 108.097 39.0922 110.277 39.0922C112.365 39.0922 113.868 38.0141 113.868 36.5336C113.868 35.2485 112.962 34.479 110.816 33.9516L108.67 33.4347C105.63 32.7003 104.218 31.2784 104.218 28.9711C104.218 26.1143 106.708 24.1521 110.243 24.1521C113.742 24.1521 116.14 26.1143 116.221 28.9711H113.719C113.57 27.3188 112.204 26.3214 110.208 26.3214C108.212 26.3214 106.846 27.3305 106.846 28.7992C106.846 29.9698 107.718 30.6586 109.852 31.1859L111.677 31.6338C115.074 32.4372 116.485 33.8018 116.485 36.2237C116.485 39.3213 114.018 41.2614 110.093 41.2614C106.421 41.2614 103.942 39.3669 103.782 36.3721L106.318 36.3722Z" fill="black"/>
<path d="M121.833 26.0573V28.914H124.128V30.8763H121.833V37.5312C121.833 38.5651 122.293 39.0468 123.302 39.0468C123.574 39.0421 123.846 39.0229 124.117 38.9895V40.94C123.663 41.0248 123.202 41.0632 122.74 41.0546C120.296 41.0546 119.343 40.1366 119.343 37.7955V30.8763H117.588V28.914H119.343V26.0573H121.833Z" fill="black"/>
<path d="M125.458 34.9504C125.458 31.1522 127.695 28.7655 131.183 28.7655C134.683 28.7655 136.91 31.1522 136.91 34.9504C136.91 38.759 134.695 41.1353 131.183 41.1353C127.673 41.1353 125.458 38.759 125.458 34.9504ZM134.385 34.9504C134.385 32.3449 133.191 30.8072 131.183 30.8072C129.175 30.8072 127.983 32.3566 127.983 34.9504C127.983 37.5663 129.175 39.0923 131.183 39.0923C133.191 39.0923 134.385 37.5663 134.385 34.9504H134.385Z" fill="black"/>
<path d="M138.953 28.9138H141.316V30.9685H141.373C141.533 30.3268 141.909 29.7597 142.438 29.3625C142.967 28.9653 143.616 28.7623 144.277 28.7875C144.562 28.7865 144.847 28.8175 145.126 28.88V31.1977C144.765 31.0875 144.389 31.0369 144.013 31.0479C143.653 31.0333 143.294 31.0968 142.961 31.234C142.627 31.3712 142.328 31.5788 142.083 31.8427C141.837 32.1065 141.652 32.4203 141.539 32.7625C141.427 33.1048 141.39 33.4673 141.43 33.8253V40.9854H138.953L138.953 28.9138Z" fill="black"/>
<path d="M156.55 37.44C156.217 39.6314 154.083 41.1353 151.352 41.1353C147.841 41.1353 145.661 38.7824 145.661 35.0077C145.661 31.2212 147.852 28.7655 151.248 28.7655C154.588 28.7655 156.688 31.0598 156.688 34.7199V35.5689H148.162V35.7186C148.123 36.1629 148.178 36.6104 148.325 37.0316C148.472 37.4527 148.707 37.8377 149.014 38.1611C149.321 38.4845 149.694 38.7389 150.107 38.9073C150.52 39.0757 150.964 39.1543 151.41 39.1379C151.995 39.1928 152.583 39.0571 153.085 38.7512C153.587 38.4453 153.977 37.9854 154.197 37.44L156.55 37.44ZM148.174 33.8371H154.209C154.231 33.4377 154.171 33.0379 154.031 32.663C153.892 32.288 153.676 31.946 153.398 31.6583C153.12 31.3706 152.786 31.1435 152.416 30.9912C152.046 30.8389 151.648 30.7647 151.248 30.7733C150.845 30.7709 150.445 30.8484 150.071 31.0014C149.698 31.1544 149.358 31.3798 149.073 31.6647C148.787 31.9495 148.56 32.2882 148.406 32.661C148.252 33.0339 148.173 33.4336 148.174 33.8371V33.8371Z" fill="black"/>
<path d="M61.1394 11.9654C61.6589 11.9282 62.1802 12.0066 62.6657 12.1952C63.1511 12.3838 63.5887 12.6778 63.9468 13.0559C64.305 13.4341 64.5747 13.887 64.7365 14.3821C64.8984 14.8771 64.9484 15.4019 64.8829 15.9186C64.8829 18.4602 63.5092 19.9212 61.1394 19.9212H58.2657V11.9654H61.1394ZM59.5014 18.7961H61.0014C61.3726 18.8183 61.7441 18.7574 62.0888 18.618C62.4335 18.4785 62.7428 18.2639 62.9941 17.9898C63.2454 17.7157 63.4325 17.389 63.5416 17.0335C63.6508 16.678 63.6793 16.3027 63.6251 15.9348C63.6754 15.5683 63.644 15.1953 63.5331 14.8424C63.4223 14.4895 63.2348 14.1655 62.984 13.8936C62.7333 13.6217 62.4255 13.4086 62.0827 13.2697C61.74 13.1307 61.3707 13.0692 61.0014 13.0897H59.5014V18.7961Z" fill="black"/>
<path d="M66.2787 16.9166C66.241 16.522 66.2861 16.1239 66.4112 15.7478C66.5363 15.3717 66.7387 15.0259 67.0053 14.7326C67.2719 14.4393 67.5968 14.205 67.9593 14.0446C68.3218 13.8842 68.7137 13.8014 69.1101 13.8014C69.5065 13.8014 69.8984 13.8842 70.2609 14.0446C70.6234 14.205 70.9483 14.4393 71.2149 14.7326C71.4815 15.0259 71.6838 15.3717 71.809 15.7478C71.9341 16.1239 71.9792 16.522 71.9415 16.9166C71.9799 17.3115 71.9353 17.7102 71.8105 18.0869C71.6858 18.4636 71.4835 18.81 71.2169 19.1039C70.9502 19.3978 70.625 19.6326 70.2622 19.7933C69.8994 19.954 69.5069 20.0371 69.1101 20.0371C68.7133 20.0371 68.3208 19.954 67.958 19.7933C67.5952 19.6326 67.27 19.3978 67.0033 19.1039C66.7366 18.81 66.5344 18.4636 66.4096 18.0869C66.2848 17.7102 66.2403 17.3115 66.2787 16.9166ZM70.7227 16.9166C70.7227 15.6151 70.1381 14.8541 69.112 14.8541C68.0821 14.8541 67.5027 15.6151 67.5027 16.9166C67.5027 18.2284 68.0821 18.9836 69.112 18.9836C70.1381 18.9836 70.7227 18.2232 70.7227 16.9166H70.7227Z" fill="black"/>
<path d="M79.4688 19.9211H78.2397L76.9988 15.4993H76.905L75.6694 19.9211H74.4519L72.797 13.9172H73.9988L75.0743 18.4986H75.1629L76.3972 13.9172H77.534L78.7683 18.4986H78.8621L79.9324 13.9172H81.1173L79.4688 19.9211Z" fill="black"/>
<path d="M82.5092 13.9172H83.6498V14.871H83.7384C83.8886 14.5284 84.1419 14.2413 84.4631 14.0495C84.7843 13.8578 85.1572 13.771 85.5301 13.8013C85.8222 13.7794 86.1155 13.8234 86.3883 13.9302C86.6611 14.037 86.9064 14.2038 87.106 14.4183C87.3055 14.6327 87.4543 14.8893 87.5412 15.1691C87.6282 15.4488 87.6511 15.7446 87.6082 16.0344V19.9211H86.4233V16.3319C86.4233 15.3671 86.004 14.8873 85.1277 14.8873C84.9294 14.878 84.7314 14.9118 84.5473 14.9862C84.3632 15.0607 84.1974 15.174 84.0613 15.3185C83.9251 15.4631 83.8218 15.6353 83.7584 15.8235C83.695 16.0117 83.6731 16.2113 83.6941 16.4087V19.9211H82.5092L82.5092 13.9172Z" fill="black"/>
<path d="M89.4962 11.5735H90.6811V19.9211H89.4962V11.5735Z" fill="black"/>
<path d="M92.3282 16.9167C92.2905 16.5221 92.3357 16.124 92.4608 15.7479C92.586 15.3718 92.7884 15.026 93.055 14.7326C93.3216 14.4393 93.6466 14.205 94.0091 14.0446C94.3716 13.8842 94.7636 13.8014 95.16 13.8014C95.5563 13.8014 95.9483 13.8842 96.3108 14.0446C96.6733 14.205 96.9983 14.4393 97.2649 14.7326C97.5315 15.026 97.7339 15.3718 97.8591 15.7479C97.9842 16.124 98.0294 16.5221 97.9917 16.9167C98.0301 17.3117 97.9854 17.7103 97.8606 18.087C97.7358 18.4637 97.5335 18.8101 97.2668 19.104C97.0002 19.3979 96.6749 19.6327 96.3121 19.7934C95.9492 19.9541 95.5568 20.0371 95.16 20.0371C94.7631 20.0371 94.3707 19.9541 94.0078 19.7934C93.645 19.6327 93.3197 19.3979 93.0531 19.104C92.7864 18.8101 92.5841 18.4637 92.4593 18.087C92.3345 17.7103 92.2898 17.3117 92.3282 16.9167ZM96.7722 16.9167C96.7722 15.6152 96.1876 14.8542 95.1616 14.8542C94.1316 14.8542 93.5522 15.6152 93.5522 16.9167C93.5522 18.2285 94.1317 18.9837 95.1616 18.9837C96.1876 18.9837 96.7723 18.2233 96.7723 16.9167H96.7722Z" fill="black"/>
<path d="M99.239 18.2233C99.239 17.1425 100.044 16.5195 101.472 16.4309L103.098 16.3372V15.819C103.098 15.1848 102.679 14.8268 101.869 14.8268C101.208 14.8268 100.749 15.0696 100.618 15.4941H99.4708C99.5919 14.4628 100.562 13.8014 101.924 13.8014C103.429 13.8014 104.278 14.5507 104.278 15.819V19.9212H103.137V19.0774H103.044C102.853 19.3801 102.586 19.6268 102.269 19.7924C101.953 19.958 101.597 20.0366 101.24 20.0201C100.988 20.0463 100.734 20.0194 100.493 19.9412C100.252 19.8629 100.03 19.735 99.841 19.5657C99.6525 19.3964 99.5015 19.1895 99.3978 18.9583C99.2941 18.727 99.24 18.4767 99.239 18.2233ZM103.098 17.7102V17.2083L101.632 17.302C100.805 17.3574 100.43 17.6386 100.43 18.1679C100.43 18.7083 100.899 19.0227 101.544 19.0227C101.733 19.0418 101.923 19.0228 102.105 18.9667C102.286 18.9105 102.454 18.8185 102.599 18.6961C102.744 18.5736 102.863 18.4232 102.949 18.2539C103.035 18.0845 103.086 17.8996 103.098 17.7102Z" fill="black"/>
<path d="M105.835 16.9166C105.835 15.0195 106.811 13.8176 108.328 13.8176C108.703 13.8004 109.075 13.8902 109.401 14.0768C109.727 14.2633 109.993 14.5388 110.169 14.871H110.257V11.5735H111.442V19.9211H110.307V18.9726H110.213C110.024 19.3026 109.749 19.5746 109.416 19.7592C109.084 19.9439 108.708 20.0341 108.328 20.0201C106.8 20.0202 105.835 18.8183 105.835 16.9166ZM107.059 16.9166C107.059 18.19 107.66 18.9563 108.664 18.9563C109.662 18.9563 110.279 18.179 110.279 16.9218C110.279 15.6705 109.656 14.8821 108.664 14.8821C107.666 14.8821 107.059 15.6536 107.059 16.9166H107.059Z" fill="black"/>
<path d="M116.345 16.9166C116.307 16.522 116.352 16.1239 116.477 15.7478C116.602 15.3717 116.804 15.0259 117.071 14.7326C117.338 14.4393 117.663 14.205 118.025 14.0446C118.388 13.8842 118.78 13.8014 119.176 13.8014C119.572 13.8014 119.964 13.8842 120.327 14.0446C120.689 14.205 121.014 14.4393 121.281 14.7326C121.547 15.0259 121.75 15.3717 121.875 15.7478C122 16.1239 122.045 16.522 122.007 16.9166C122.046 17.3115 122.001 17.7102 121.876 18.0869C121.752 18.4636 121.549 18.81 121.283 19.1039C121.016 19.3978 120.691 19.6326 120.328 19.7933C119.965 19.954 119.573 20.0371 119.176 20.0371C118.779 20.0371 118.387 19.954 118.024 19.7933C117.661 19.6326 117.336 19.3978 117.069 19.1039C116.802 18.81 116.6 18.4636 116.475 18.0869C116.351 17.7102 116.306 17.3115 116.345 16.9166ZM120.789 16.9166C120.789 15.6151 120.204 14.8541 119.178 14.8541C118.148 14.8541 117.569 15.6151 117.569 16.9166C117.569 18.2284 118.148 18.9836 119.178 18.9836C120.204 18.9836 120.789 18.2232 120.789 16.9166Z" fill="black"/>
<path d="M123.597 13.9172H124.738V14.871H124.826C124.976 14.5284 125.23 14.2413 125.551 14.0495C125.872 13.8578 126.245 13.771 126.618 13.8013C126.91 13.7794 127.203 13.8234 127.476 13.9302C127.749 14.037 127.994 14.2038 128.194 14.4183C128.393 14.6327 128.542 14.8893 128.629 15.1691C128.716 15.4488 128.739 15.7446 128.696 16.0344V19.9211H127.511V16.3319C127.511 15.3671 127.092 14.8873 126.216 14.8873C126.017 14.878 125.819 14.9118 125.635 14.9862C125.451 15.0607 125.285 15.174 125.149 15.3185C125.013 15.4631 124.91 15.6353 124.846 15.8235C124.783 16.0117 124.761 16.2113 124.782 16.4087V19.9211H123.597V13.9172Z" fill="black"/>
<path d="M135.391 12.4225V13.9446H136.692V14.9427H135.391V18.0299C135.391 18.6588 135.65 18.9342 136.24 18.9342C136.391 18.9337 136.542 18.9246 136.692 18.9069V19.8938C136.479 19.9319 136.264 19.9521 136.048 19.9544C134.73 19.9544 134.205 19.4908 134.205 18.3333V14.9426H133.252V13.9446H134.205V12.4225H135.391Z" fill="black"/>
<path d="M138.311 11.5735H139.485V14.8821H139.579C139.736 14.5363 139.997 14.2475 140.324 14.0551C140.652 13.8626 141.031 13.7758 141.409 13.8066C141.7 13.7908 141.991 13.8393 142.26 13.9487C142.53 14.058 142.772 14.2256 142.97 14.4394C143.167 14.6532 143.315 14.9079 143.403 15.1854C143.491 15.4629 143.516 15.7564 143.477 16.0448V19.9212H142.291V16.3372C142.291 15.3782 141.844 14.8925 141.007 14.8925C140.804 14.8758 140.599 14.9038 140.407 14.9745C140.215 15.0453 140.041 15.157 139.897 15.302C139.753 15.447 139.643 15.6217 139.573 15.8139C139.504 16.0061 139.477 16.2111 139.496 16.4146V19.9211H138.311L138.311 11.5735Z" fill="black"/>
<path d="M150.386 18.2998C150.225 18.8485 149.876 19.3232 149.401 19.6407C148.925 19.9582 148.353 20.0984 147.785 20.0368C147.389 20.0472 146.996 19.9715 146.633 19.8148C146.269 19.6581 145.944 19.4242 145.681 19.1293C145.417 18.8345 145.22 18.4857 145.105 18.1073C144.989 17.7289 144.957 17.3298 145.011 16.9378C144.958 16.5447 144.991 16.1448 145.106 15.7652C145.222 15.3856 145.417 15.0353 145.68 14.7378C145.942 14.4404 146.265 14.2028 146.628 14.0412C146.99 13.8796 147.383 13.7977 147.779 13.8011C149.45 13.8011 150.458 14.9425 150.458 16.8278V17.2412H146.218V17.3076C146.2 17.528 146.227 17.7497 146.3 17.9587C146.372 18.1677 146.487 18.3594 146.637 18.5213C146.788 18.6832 146.971 18.8119 147.174 18.8991C147.377 18.9863 147.596 19.0301 147.817 19.0276C148.101 19.0617 148.388 19.0106 148.642 18.881C148.896 18.7514 149.106 18.5491 149.246 18.2998L150.386 18.2998ZM146.218 16.3649H149.251C149.266 16.1634 149.238 15.961 149.17 15.7707C149.102 15.5804 148.995 15.4065 148.856 15.26C148.717 15.1135 148.549 14.9978 148.362 14.9202C148.176 14.8426 147.975 14.805 147.773 14.8096C147.568 14.807 147.365 14.8455 147.175 14.9228C146.985 15 146.812 15.1145 146.668 15.2594C146.523 15.4044 146.408 15.5769 146.331 15.7667C146.254 15.9566 146.216 16.16 146.218 16.3649H146.218Z" fill="black"/>
</svg>
