<svg width="8" height="8" viewBox="0 0 8 8" fill="none" xmlns="http://www.w3.org/2000/svg">
<rect width="8" height="8" fill="white"/>
<path d="M7.87213 2.03238L7.61008 1.76851C7.52761 1.6861 7.41788 1.6407 7.30061 1.6407C7.18341 1.6407 7.07355 1.6861 6.99108 1.76851L4.00179 4.75793L1.00905 1.76519C0.926707 1.68278 0.816852 1.63745 0.699648 1.63745C0.582444 1.63745 0.472524 1.68278 0.390117 1.76519L0.128001 2.02744C-0.042667 2.19798 -0.042667 2.47577 0.128001 2.64631L3.69122 6.22233C3.77356 6.30468 3.88328 6.36269 4.00153 6.36269H4.00289C4.12016 6.36269 4.22989 6.30461 4.31223 6.22233L7.87213 2.656C7.9546 2.57365 7.99987 2.46061 8 2.34341C8 2.22614 7.9546 2.11466 7.87213 2.03238Z" fill="#35414B"/>
</svg>
