<svg width="185" height="15" viewBox="0 0 185 15" fill="none" xmlns="http://www.w3.org/2000/svg">
<path d="M2.5 5.90909C2.5 5.36553 2.63258 4.87003 2.89773 4.42259C3.16288 3.97514 3.51918 3.61884 3.96662 3.35369C4.41406 3.08854 4.90956 2.95597 5.45312 2.95597C5.92377 2.95597 6.35795 3.05705 6.75568 3.25923C7.15672 3.46141 7.48816 3.73816 7.75 4.08949C8.01184 4.4375 8.17424 4.83191 8.23722 5.27273H7.03409C6.9678 4.93134 6.78385 4.65294 6.48224 4.4375C6.18063 4.21875 5.83759 4.10938 5.45312 4.10938C5.12169 4.10938 4.82008 4.19058 4.5483 4.35298C4.27652 4.51539 4.05942 4.73248 3.89702 5.00426C3.73461 5.27604 3.65341 5.57765 3.65341 5.90909C3.65341 6.24053 3.73461 6.54214 3.89702 6.81392C4.05942 7.0857 4.27652 7.30279 4.5483 7.4652C4.82008 7.6276 5.12169 7.70881 5.45312 7.70881C5.83759 7.70881 6.16241 7.60109 6.42756 7.38565C6.69602 7.1669 6.86506 6.88684 6.93466 6.54545H8.13778C8.07481 6.98627 7.92069 7.38234 7.67543 7.73366C7.43016 8.08168 7.11529 8.35677 6.73082 8.55895C6.34967 8.76113 5.92377 8.86222 5.45312 8.86222C4.90956 8.86222 4.41406 8.72964 3.96662 8.46449C3.51918 8.19934 3.16288 7.84304 2.89773 7.3956C2.63258 6.94815 2.5 6.45265 2.5 5.90909ZM5.40341 11.1591C4.68087 11.1591 4.00142 11.0232 3.36506 10.7514C2.73201 10.4796 2.17353 10.1035 1.68963 9.62287C1.20904 9.13897 0.831203 8.58049 0.556108 7.94744C0.284328 7.31439 0.150095 6.63494 0.153409 5.90909C0.156723 5.18324 0.294271 4.50379 0.566051 3.87074C0.841146 3.23769 1.21899 2.68087 1.69957 2.20028C2.18016 1.71638 2.73698 1.33854 3.37003 1.06676C4.00308 0.794981 4.68087 0.659091 5.40341 0.659091C6.12926 0.659091 6.80871 0.794981 7.44176 1.06676C8.07813 1.33854 8.63494 1.71638 9.11222 2.20028C9.5928 2.68087 9.96899 3.23769 10.2408 3.87074C10.5125 4.50379 10.6501 5.18324 10.6534 5.90909C10.6567 6.63494 10.5225 7.31439 10.2507 7.94744C9.97893 8.58049 9.60275 9.13897 9.12216 9.62287C8.64157 10.1035 8.0831 10.4796 7.44673 10.7514C6.81037 11.0232 6.12926 11.1591 5.40341 11.1591ZM5.40341 10.0057C5.97017 10.0057 6.50213 9.89962 6.99929 9.6875C7.49645 9.47538 7.93229 9.18205 8.30682 8.80753C8.68134 8.433 8.97467 7.99882 9.18679 7.50497C9.39891 7.00781 9.50331 6.47751 9.5 5.91406C9.49669 5.3473 9.38897 4.81534 9.17685 4.31818C8.96473 3.82102 8.6714 3.38518 8.29688 3.01065C7.92235 2.63613 7.48816 2.3428 6.99432 2.13068C6.50047 1.91856 5.97017 1.8125 5.40341 1.8125C4.83996 1.8125 4.31132 1.91856 3.81747 2.13068C3.32363 2.3428 2.88944 2.63778 2.51491 3.01562C2.14039 3.39015 1.84541 3.82599 1.62997 4.32315C1.41785 4.817 1.31013 5.3473 1.30682 5.91406C1.3035 6.47419 1.40791 7.00284 1.62003 7.5C1.83215 7.99384 2.12547 8.42803 2.5 8.80256C2.87784 9.17708 3.31368 9.47206 3.80753 9.6875C4.30469 9.89962 4.83665 10.0057 5.40341 10.0057ZM16.802 11V10.1051L20.1628 6.42614C20.5572 5.99526 20.882 5.62074 21.1373 5.30256C21.3925 4.98106 21.5814 4.67945 21.704 4.39773C21.83 4.11269 21.8929 3.81439 21.8929 3.50284C21.8929 3.14489 21.8068 2.83499 21.6344 2.57315C21.4654 2.31132 21.2334 2.10914 20.9384 1.96662C20.6434 1.8241 20.312 1.75284 19.9441 1.75284C19.553 1.75284 19.2116 1.83404 18.9199 1.99645C18.6316 2.15554 18.4078 2.37926 18.2488 2.66761C18.093 2.95597 18.0151 3.29403 18.0151 3.68182H16.8418C16.8418 3.08523 16.9793 2.56155 17.2544 2.1108C17.5295 1.66004 17.9041 1.30871 18.378 1.05682C18.8553 0.804924 19.3906 0.678977 19.9838 0.678977C20.5804 0.678977 21.1091 0.804924 21.5698 1.05682C22.0305 1.30871 22.3917 1.64844 22.6536 2.07599C22.9154 2.50355 23.0463 2.97917 23.0463 3.50284C23.0463 3.87737 22.9784 4.24361 22.8425 4.60156C22.7099 4.9562 22.4779 5.35227 22.1465 5.78977C21.8184 6.22396 21.3626 6.75426 20.7793 7.38068L18.4924 9.8267V9.90625H23.2253V11H16.802ZM28.5996 11.1392C27.8506 11.1392 27.2125 10.9354 26.6855 10.5277C26.1586 10.1167 25.7559 9.52178 25.4775 8.7429C25.199 7.9607 25.0598 7.0161 25.0598 5.90909C25.0598 4.80871 25.199 3.86908 25.4775 3.0902C25.7592 2.308 26.1635 1.71141 26.6905 1.30043C27.2208 0.886126 27.8572 0.678977 28.5996 0.678977C29.342 0.678977 29.9767 0.886126 30.5037 1.30043C31.034 1.71141 31.4384 2.308 31.7168 3.0902C31.9985 3.86908 32.1394 4.80871 32.1394 5.90909C32.1394 7.0161 32.0002 7.9607 31.7218 8.7429C31.4434 9.52178 31.0407 10.1167 30.5137 10.5277C29.9867 10.9354 29.3487 11.1392 28.5996 11.1392ZM28.5996 10.0455C29.342 10.0455 29.9187 9.6875 30.3297 8.97159C30.7407 8.25568 30.9462 7.23485 30.9462 5.90909C30.9462 5.02746 30.8517 4.27675 30.6628 3.65696C30.4772 3.03717 30.2087 2.56487 29.8574 2.24006C29.5094 1.91525 29.0901 1.75284 28.5996 1.75284C27.8638 1.75284 27.2888 2.11577 26.8745 2.84162C26.4602 3.56416 26.253 4.58665 26.253 5.90909C26.253 6.79072 26.3458 7.53977 26.5314 8.15625C26.717 8.77273 26.9838 9.24171 27.3319 9.56321C27.6832 9.88471 28.1058 10.0455 28.5996 10.0455ZM34.0286 11V10.1051L37.3894 6.42614C37.7838 5.99526 38.1086 5.62074 38.3638 5.30256C38.619 4.98106 38.8079 4.67945 38.9306 4.39773C39.0565 4.11269 39.1195 3.81439 39.1195 3.50284C39.1195 3.14489 39.0333 2.83499 38.861 2.57315C38.6919 2.31132 38.4599 2.10914 38.165 1.96662C37.87 1.8241 37.5385 1.75284 37.1706 1.75284C36.7795 1.75284 36.4382 1.83404 36.1465 1.99645C35.8581 2.15554 35.6344 2.37926 35.4753 2.66761C35.3195 2.95597 35.2417 3.29403 35.2417 3.68182H34.0684C34.0684 3.08523 34.2059 2.56155 34.481 2.1108C34.7561 1.66004 35.1306 1.30871 35.6046 1.05682C36.0819 0.804924 36.6171 0.678977 37.2104 0.678977C37.807 0.678977 38.3356 0.804924 38.7963 1.05682C39.257 1.30871 39.6183 1.64844 39.8801 2.07599C40.142 2.50355 40.2729 2.97917 40.2729 3.50284C40.2729 3.87737 40.205 4.24361 40.0691 4.60156C39.9365 4.9562 39.7045 5.35227 39.373 5.78977C39.0449 6.22396 38.5892 6.75426 38.0059 7.38068L35.7189 9.8267V9.90625H40.4519V11H34.0286ZM45.8262 11.1392C45.0771 11.1392 44.4391 10.9354 43.9121 10.5277C43.3851 10.1167 42.9824 9.52178 42.704 8.7429C42.4256 7.9607 42.2864 7.0161 42.2864 5.90909C42.2864 4.80871 42.4256 3.86908 42.704 3.0902C42.9857 2.308 43.3901 1.71141 43.9171 1.30043C44.4474 0.886126 45.0837 0.678977 45.8262 0.678977C46.5686 0.678977 47.2033 0.886126 47.7303 1.30043C48.2606 1.71141 48.665 2.308 48.9434 3.0902C49.2251 3.86908 49.3659 4.80871 49.3659 5.90909C49.3659 7.0161 49.2267 7.9607 48.9483 8.7429C48.6699 9.52178 48.2672 10.1167 47.7402 10.5277C47.2132 10.9354 46.5752 11.1392 45.8262 11.1392ZM45.8262 10.0455C46.5686 10.0455 47.1453 9.6875 47.5563 8.97159C47.9673 8.25568 48.1728 7.23485 48.1728 5.90909C48.1728 5.02746 48.0783 4.27675 47.8894 3.65696C47.7038 3.03717 47.4353 2.56487 47.084 2.24006C46.736 1.91525 46.3167 1.75284 45.8262 1.75284C45.0904 1.75284 44.5153 2.11577 44.101 2.84162C43.6867 3.56416 43.4796 4.58665 43.4796 5.90909C43.4796 6.79072 43.5724 7.53977 43.758 8.15625C43.9436 8.77273 44.2104 9.24171 44.5584 9.56321C44.9097 9.88471 45.3323 10.0455 45.8262 10.0455ZM59.5875 5.36222V6.45597H55.133V5.36222H59.5875ZM66.1662 11H64.8736L68.6122 0.818182H69.8849L73.6236 11H72.331L69.2884 2.42898H69.2088L66.1662 11ZM66.6435 7.02273H71.8537V8.11648H66.6435V7.02273ZM75.0504 0.818182H76.2237V9.01136C76.2237 9.38258 76.2652 9.64276 76.348 9.7919C76.4309 9.94105 76.6016 10.0123 76.8601 10.0057C76.9993 9.99905 77.102 9.98911 77.1683 9.97585C77.2379 9.95928 77.3009 9.94271 77.3572 9.92614L77.5959 10.9403C77.4931 10.9702 77.3639 10.9967 77.2081 11.0199C77.0523 11.0464 76.8899 11.0597 76.7209 11.0597C76.1641 11.0597 75.7464 10.9072 75.468 10.6023C75.1896 10.2973 75.0504 9.87311 75.0504 9.32955V0.818182ZM78.8786 0.818182H80.0518V9.01136C80.0518 9.38258 80.0933 9.64276 80.1761 9.7919C80.259 9.94105 80.4297 10.0123 80.6882 10.0057C80.8274 9.99905 80.9302 9.98911 80.9964 9.97585C81.0661 9.95928 81.129 9.94271 81.1854 9.92614L81.424 10.9403C81.3213 10.9702 81.192 10.9967 81.0362 11.0199C80.8804 11.0464 80.718 11.0597 80.549 11.0597C79.9922 11.0597 79.5746 10.9072 79.2962 10.6023C79.0178 10.2973 78.8786 9.87311 78.8786 9.32955V0.818182ZM86.4391 11V3.36364H87.5726V4.51705H87.6522C87.7881 4.1392 88.0383 3.83262 88.4029 3.5973C88.7675 3.36198 89.1801 3.24432 89.6408 3.24432C89.8529 3.24432 90.0385 3.26918 90.1976 3.31889C90.3567 3.36861 90.4959 3.43655 90.6152 3.52273L90.2175 4.51705C90.1346 4.47396 90.0369 4.44081 89.9242 4.41761C89.8148 4.3911 89.6872 4.37784 89.5414 4.37784C89.1702 4.37784 88.8387 4.45573 88.5471 4.61151C88.2587 4.76728 88.03 4.9794 87.861 5.24787C87.6953 5.51634 87.6124 5.82292 87.6124 6.16761V11H86.4391ZM91.8121 11V3.36364H92.9854V11H91.8121ZM92.4087 2.09091C92.18 2.09091 91.9828 2.01302 91.8171 1.85724C91.6547 1.70147 91.5735 1.5142 91.5735 1.29545C91.5735 1.0767 91.6547 0.889441 91.8171 0.733664C91.9828 0.577888 92.18 0.5 92.4087 0.5C92.6374 0.5 92.833 0.577888 92.9954 0.733664C93.1611 0.889441 93.244 1.0767 93.244 1.29545C93.244 1.5142 93.1611 1.70147 92.9954 1.85724C92.833 2.01302 92.6374 2.09091 92.4087 2.09091ZM98.2168 14.0227C97.65 14.0227 97.1628 13.9498 96.7551 13.804C96.3475 13.6615 96.0078 13.4725 95.736 13.2372C95.4675 13.0052 95.2537 12.7566 95.0946 12.4915L96.0293 11.8352C96.1354 11.9744 96.2696 12.1335 96.432 12.3125C96.5944 12.4948 96.8165 12.6522 97.0982 12.7848C97.3832 12.9207 97.7561 12.9886 98.2168 12.9886C98.8333 12.9886 99.342 12.8395 99.7431 12.5412C100.144 12.2429 100.345 11.7756 100.345 11.1392V9.58807H100.245C100.159 9.72727 100.036 9.89962 99.8773 10.1051C99.7215 10.3073 99.4962 10.4879 99.2012 10.647C98.9095 10.8028 98.5151 10.8807 98.0179 10.8807C97.4015 10.8807 96.848 10.7348 96.3574 10.4432C95.8702 10.1515 95.4841 9.72727 95.199 9.17045C94.9173 8.61364 94.7765 7.9375 94.7765 7.14205C94.7765 6.35985 94.914 5.67874 95.1891 5.09872C95.4642 4.51539 95.847 4.06463 96.3375 3.74645C96.8281 3.42495 97.3948 3.2642 98.0378 3.2642C98.535 3.2642 98.9294 3.34706 99.2211 3.51278C99.516 3.67519 99.7414 3.8608 99.8972 4.0696C100.056 4.27509 100.179 4.44413 100.265 4.5767H100.384V3.36364H101.518V11.2188C101.518 11.875 101.369 12.4086 101.07 12.8196C100.776 13.2339 100.378 13.5372 99.8773 13.7294C99.3801 13.925 98.8266 14.0227 98.2168 14.0227ZM98.177 9.8267C98.6477 9.8267 99.0454 9.71899 99.3702 9.50355C99.695 9.28812 99.9419 8.97822 100.111 8.57386C100.28 8.16951 100.365 7.68561 100.365 7.12216C100.365 6.57197 100.282 6.08641 100.116 5.66548C99.9502 5.24455 99.705 4.91477 99.3801 4.67614C99.0553 4.4375 98.6543 4.31818 98.177 4.31818C97.6799 4.31818 97.2656 4.44413 96.9341 4.69602C96.606 4.94792 96.3591 5.28598 96.1934 5.71023C96.031 6.13447 95.9498 6.60511 95.9498 7.12216C95.9498 7.65246 96.0326 8.12145 96.1983 8.52912C96.3674 8.93348 96.6159 9.25166 96.9441 9.48366C97.2755 9.71236 97.6865 9.8267 98.177 9.8267ZM104.839 6.40625V11H103.666V0.818182H104.839V4.55682H104.938C105.117 4.16241 105.386 3.84919 105.744 3.61719C106.105 3.38187 106.586 3.2642 107.186 3.2642C107.706 3.2642 108.162 3.36861 108.553 3.57741C108.944 3.78291 109.247 4.09943 109.463 4.52699C109.681 4.95123 109.791 5.49148 109.791 6.14773V11H108.617V6.22727C108.617 5.62074 108.46 5.15175 108.145 4.82031C107.834 4.48556 107.401 4.31818 106.847 4.31818C106.463 4.31818 106.118 4.39938 105.813 4.56179C105.512 4.72419 105.273 4.96117 105.097 5.27273C104.925 5.58428 104.839 5.96212 104.839 6.40625ZM115.258 3.36364V4.35795H111.301V3.36364H115.258ZM112.454 1.53409H113.627V8.8125C113.627 9.14394 113.676 9.39252 113.772 9.55824C113.871 9.72064 113.997 9.83002 114.15 9.88636C114.305 9.93939 114.469 9.96591 114.642 9.96591C114.771 9.96591 114.877 9.95928 114.96 9.94602C115.043 9.92945 115.109 9.91619 115.159 9.90625L115.397 10.9602C115.318 10.9901 115.207 11.0199 115.064 11.0497C114.922 11.0829 114.741 11.0994 114.522 11.0994C114.191 11.0994 113.866 11.0282 113.548 10.8857C113.233 10.7431 112.971 10.526 112.762 10.2344C112.557 9.94271 112.454 9.57481 112.454 9.13068V1.53409ZM122.295 5.07386L121.241 5.37216C121.175 5.1965 121.077 5.0258 120.948 4.86009C120.822 4.69105 120.65 4.55185 120.431 4.44247C120.212 4.3331 119.932 4.27841 119.591 4.27841C119.124 4.27841 118.734 4.38613 118.423 4.60156C118.114 4.81368 117.96 5.08381 117.96 5.41193C117.96 5.7036 118.066 5.93395 118.278 6.10298C118.491 6.27202 118.822 6.41288 119.273 6.52557L120.406 6.80398C121.089 6.9697 121.598 7.22325 121.933 7.56463C122.267 7.9027 122.435 8.33854 122.435 8.87216C122.435 9.30966 122.309 9.70076 122.057 10.0455C121.808 10.3902 121.46 10.6619 121.013 10.8608C120.565 11.0597 120.045 11.1591 119.452 11.1591C118.673 11.1591 118.028 10.9901 117.518 10.652C117.007 10.3139 116.684 9.82008 116.548 9.17045L117.662 8.89205C117.768 9.30303 117.969 9.61127 118.263 9.81676C118.562 10.0223 118.951 10.125 119.432 10.125C119.979 10.125 120.413 10.009 120.734 9.77699C121.059 9.54167 121.222 9.25994 121.222 8.93182C121.222 8.66667 121.129 8.4446 120.943 8.26562C120.758 8.08333 120.473 7.94744 120.088 7.85795L118.815 7.55966C118.116 7.39394 117.602 7.13707 117.274 6.78906C116.949 6.43774 116.787 5.99858 116.787 5.47159C116.787 5.04072 116.908 4.65956 117.15 4.32812C117.395 3.99669 117.728 3.73651 118.149 3.54758C118.573 3.35866 119.054 3.2642 119.591 3.2642C120.347 3.2642 120.94 3.42992 121.371 3.76136C121.805 4.0928 122.113 4.5303 122.295 5.07386ZM128.138 11V3.36364H129.272V4.51705H129.351C129.487 4.1392 129.738 3.83262 130.102 3.5973C130.467 3.36198 130.879 3.24432 131.34 3.24432C131.552 3.24432 131.738 3.26918 131.897 3.31889C132.056 3.36861 132.195 3.43655 132.314 3.52273L131.917 4.51705C131.834 4.47396 131.736 4.44081 131.623 4.41761C131.514 4.3911 131.386 4.37784 131.241 4.37784C130.869 4.37784 130.538 4.45573 130.246 4.61151C129.958 4.76728 129.729 4.9794 129.56 5.24787C129.394 5.51634 129.312 5.82292 129.312 6.16761V11H128.138ZM136.481 11.1591C135.745 11.1591 135.11 10.9967 134.577 10.6719C134.046 10.3438 133.637 9.88636 133.349 9.29972C133.064 8.70975 132.921 8.02367 132.921 7.24148C132.921 6.45928 133.064 5.76989 133.349 5.1733C133.637 4.57339 134.038 4.10606 134.552 3.77131C135.069 3.43324 135.672 3.2642 136.361 3.2642C136.759 3.2642 137.152 3.33049 137.54 3.46307C137.927 3.59564 138.28 3.81108 138.599 4.10938C138.917 4.40436 139.17 4.79545 139.359 5.28267C139.548 5.76989 139.643 6.36979 139.643 7.08239V7.57955H133.756V6.56534H138.449C138.449 6.13447 138.363 5.75 138.191 5.41193C138.022 5.07386 137.78 4.80705 137.465 4.61151C137.153 4.41596 136.786 4.31818 136.361 4.31818C135.894 4.31818 135.49 4.43419 135.148 4.66619C134.81 4.89489 134.55 5.19318 134.368 5.56108C134.185 5.92898 134.094 6.32339 134.094 6.74432V7.42045C134.094 7.99716 134.194 8.48603 134.393 8.88707C134.595 9.2848 134.875 9.58807 135.233 9.79688C135.591 10.0024 136.007 10.1051 136.481 10.1051C136.789 10.1051 137.067 10.062 137.316 9.97585C137.568 9.88636 137.785 9.75379 137.967 9.57812C138.149 9.39915 138.29 9.17708 138.39 8.91193L139.523 9.23011C139.404 9.61458 139.203 9.95265 138.922 10.2443C138.64 10.5327 138.292 10.758 137.878 10.9205C137.463 11.0795 136.998 11.1591 136.481 11.1591ZM146.836 5.07386L145.782 5.37216C145.716 5.1965 145.618 5.0258 145.489 4.86009C145.363 4.69105 145.191 4.55185 144.972 4.44247C144.753 4.3331 144.473 4.27841 144.132 4.27841C143.665 4.27841 143.275 4.38613 142.964 4.60156C142.655 4.81368 142.501 5.08381 142.501 5.41193C142.501 5.7036 142.607 5.93395 142.819 6.10298C143.032 6.27202 143.363 6.41288 143.814 6.52557L144.947 6.80398C145.63 6.9697 146.139 7.22325 146.474 7.56463C146.808 7.9027 146.976 8.33854 146.976 8.87216C146.976 9.30966 146.85 9.70076 146.598 10.0455C146.349 10.3902 146.001 10.6619 145.554 10.8608C145.106 11.0597 144.586 11.1591 143.993 11.1591C143.214 11.1591 142.569 10.9901 142.059 10.652C141.548 10.3139 141.225 9.82008 141.089 9.17045L142.203 8.89205C142.309 9.30303 142.51 9.61127 142.805 9.81676C143.103 10.0223 143.492 10.125 143.973 10.125C144.52 10.125 144.954 10.009 145.275 9.77699C145.6 9.54167 145.763 9.25994 145.763 8.93182C145.763 8.66667 145.67 8.4446 145.484 8.26562C145.299 8.08333 145.014 7.94744 144.629 7.85795L143.356 7.55966C142.657 7.39394 142.143 7.13707 141.815 6.78906C141.49 6.43774 141.328 5.99858 141.328 5.47159C141.328 5.04072 141.449 4.65956 141.691 4.32812C141.936 3.99669 142.269 3.73651 142.69 3.54758C143.114 3.35866 143.595 3.2642 144.132 3.2642C144.888 3.2642 145.481 3.42992 145.912 3.76136C146.346 4.0928 146.654 4.5303 146.836 5.07386ZM151.944 11.1591C151.208 11.1591 150.573 10.9967 150.039 10.6719C149.509 10.3438 149.1 9.88636 148.811 9.29972C148.526 8.70975 148.384 8.02367 148.384 7.24148C148.384 6.45928 148.526 5.76989 148.811 5.1733C149.1 4.57339 149.501 4.10606 150.015 3.77131C150.532 3.43324 151.135 3.2642 151.824 3.2642C152.222 3.2642 152.615 3.33049 153.002 3.46307C153.39 3.59564 153.743 3.81108 154.061 4.10938C154.38 4.40436 154.633 4.79545 154.822 5.28267C155.011 5.76989 155.105 6.36979 155.105 7.08239V7.57955H149.219V6.56534H153.912C153.912 6.13447 153.826 5.75 153.654 5.41193C153.485 5.07386 153.243 4.80705 152.928 4.61151C152.616 4.41596 152.248 4.31818 151.824 4.31818C151.357 4.31818 150.953 4.43419 150.611 4.66619C150.273 4.89489 150.013 5.19318 149.831 5.56108C149.648 5.92898 149.557 6.32339 149.557 6.74432V7.42045C149.557 7.99716 149.657 8.48603 149.855 8.88707C150.058 9.2848 150.338 9.58807 150.696 9.79688C151.054 10.0024 151.47 10.1051 151.944 10.1051C152.252 10.1051 152.53 10.062 152.779 9.97585C153.031 9.88636 153.248 9.75379 153.43 9.57812C153.612 9.39915 153.753 9.17708 153.853 8.91193L154.986 9.23011C154.867 9.61458 154.666 9.95265 154.385 10.2443C154.103 10.5327 153.755 10.758 153.341 10.9205C152.926 11.0795 152.461 11.1591 151.944 11.1591ZM156.89 11V3.36364H158.024V4.51705H158.103C158.239 4.1392 158.489 3.83262 158.854 3.5973C159.219 3.36198 159.631 3.24432 160.092 3.24432C160.304 3.24432 160.49 3.26918 160.649 3.31889C160.808 3.36861 160.947 3.43655 161.066 3.52273L160.669 4.51705C160.586 4.47396 160.488 4.44081 160.375 4.41761C160.266 4.3911 160.138 4.37784 159.993 4.37784C159.621 4.37784 159.29 4.45573 158.998 4.61151C158.71 4.76728 158.481 4.9794 158.312 5.24787C158.146 5.51634 158.064 5.82292 158.064 6.16761V11H156.89ZM168.631 3.36364L165.807 11H164.614L161.79 3.36364H163.062L165.17 9.44886H165.25L167.358 3.36364H168.631ZM173.108 11.1591C172.372 11.1591 171.737 10.9967 171.203 10.6719C170.673 10.3438 170.264 9.88636 169.975 9.29972C169.69 8.70975 169.548 8.02367 169.548 7.24148C169.548 6.45928 169.69 5.76989 169.975 5.1733C170.264 4.57339 170.665 4.10606 171.179 3.77131C171.696 3.43324 172.299 3.2642 172.988 3.2642C173.386 3.2642 173.779 3.33049 174.167 3.46307C174.554 3.59564 174.907 3.81108 175.225 4.10938C175.544 4.40436 175.797 4.79545 175.986 5.28267C176.175 5.76989 176.27 6.36979 176.27 7.08239V7.57955H170.383V6.56534H175.076C175.076 6.13447 174.99 5.75 174.818 5.41193C174.649 5.07386 174.407 4.80705 174.092 4.61151C173.78 4.41596 173.413 4.31818 172.988 4.31818C172.521 4.31818 172.117 4.43419 171.775 4.66619C171.437 4.89489 171.177 5.19318 170.995 5.56108C170.812 5.92898 170.721 6.32339 170.721 6.74432V7.42045C170.721 7.99716 170.821 8.48603 171.02 8.88707C171.222 9.2848 171.502 9.58807 171.86 9.79688C172.218 10.0024 172.634 10.1051 173.108 10.1051C173.416 10.1051 173.694 10.062 173.943 9.97585C174.195 9.88636 174.412 9.75379 174.594 9.57812C174.776 9.39915 174.917 9.17708 175.017 8.91193L176.15 9.23011C176.031 9.61458 175.83 9.95265 175.549 10.2443C175.267 10.5327 174.919 10.758 174.505 10.9205C174.09 11.0795 173.625 11.1591 173.108 11.1591ZM180.938 11.1591C180.301 11.1591 179.74 10.9983 179.252 10.6768C178.765 10.352 178.384 9.89465 178.109 9.30469C177.834 8.71141 177.696 8.01042 177.696 7.2017C177.696 6.39962 177.834 5.7036 178.109 5.11364C178.384 4.52367 178.767 4.06794 179.257 3.74645C179.748 3.42495 180.315 3.2642 180.958 3.2642C181.455 3.2642 181.848 3.34706 182.136 3.51278C182.428 3.67519 182.65 3.8608 182.802 4.0696C182.958 4.27509 183.079 4.44413 183.165 4.5767H183.265V0.818182H184.438V11H183.304V9.8267H183.165C183.079 9.96591 182.956 10.1416 182.797 10.3537C182.638 10.5625 182.411 10.7498 182.116 10.9155C181.821 11.0779 181.428 11.1591 180.938 11.1591ZM181.097 10.1051C181.568 10.1051 181.965 9.98248 182.29 9.73722C182.615 9.48864 182.862 9.1456 183.031 8.7081C183.2 8.26728 183.284 7.75852 183.284 7.18182C183.284 6.61174 183.202 6.11293 183.036 5.68537C182.87 5.2545 182.625 4.91974 182.3 4.68111C181.975 4.43916 181.574 4.31818 181.097 4.31818C180.6 4.31818 180.185 4.44579 179.854 4.70099C179.526 4.95289 179.279 5.29593 179.113 5.73011C178.951 6.16098 178.87 6.64489 178.87 7.18182C178.87 7.72538 178.953 8.21922 179.118 8.66335C179.287 9.10417 179.536 9.45549 179.864 9.71733C180.195 9.97585 180.606 10.1051 181.097 10.1051Z" fill="#D9DBE1"/>
</svg>
