<svg width="180" height="54" viewBox="0 0 180 54" fill="none" xmlns="http://www.w3.org/2000/svg">
<g clip-path="url(#clip0_0_296)">
<path d="M173.333 53.6667H6.66667C2.93334 53.6667 7.62939e-06 50.7334 7.62939e-06 47V7.00004C7.62939e-06 3.26671 2.93334 0.333374 6.66667 0.333374H173.333C177.067 0.333374 180 3.26671 180 7.00004V47C180 50.7334 177.067 53.6667 173.333 53.6667Z" fill="white"/>
<path d="M173.333 1.40004C176.4 1.40004 178.933 3.93337 178.933 7.00004V47C178.933 50.0667 176.4 52.6 173.333 52.6H6.66667C3.60001 52.6 1.06667 50.0667 1.06667 47V7.00004C1.06667 3.93337 3.60001 1.40004 6.66667 1.40004H173.333ZM173.333 0.333374H6.66667C2.93334 0.333374 7.62939e-06 3.40004 7.62939e-06 7.00004V47C7.62939e-06 50.7334 2.93334 53.6667 6.66667 53.6667H173.333C177.067 53.6667 180 50.7334 180 47V7.00004C180 3.40004 177.067 0.333374 173.333 0.333374Z" fill="white"/>
<path d="M63.2 13.9332C63.2 14.9999 62.9333 15.9332 62.2666 16.5999C61.4666 17.3999 60.5333 17.7999 59.3333 17.7999C58.1333 17.7999 57.2 17.3999 56.4 16.5999C55.6 15.7999 55.2 14.8665 55.2 13.6665C55.2 12.4665 55.6 11.5332 56.4 10.7332C57.2 9.9332 58.1333 9.5332 59.3333 9.5332C59.8666 9.5332 60.4 9.66654 60.9333 9.9332C61.4666 10.1999 61.8666 10.4665 62.1333 10.8665L61.4666 11.5332C60.9333 10.8665 60.2666 10.5999 59.3333 10.5999C58.5333 10.5999 57.7333 10.8665 57.2 11.5332C56.5333 12.0665 56.2667 12.8665 56.2667 13.7999C56.2667 14.7332 56.5333 15.5332 57.2 16.0665C57.8667 16.5999 58.5333 16.9999 59.3333 16.9999C60.2666 16.9999 60.9333 16.7332 61.6 16.0665C62 15.6665 62.2666 15.1332 62.2666 14.4665H59.3333V13.3999H63.2V13.9332ZM69.3333 10.5999H65.7333V13.1332H69.0666V14.0665H65.7333V16.5999H69.3333V17.6665H64.6666V9.66654H69.3333V10.5999ZM73.7333 17.6665H72.6666V10.5999H70.4V9.66654H75.9999V10.5999H73.7333V17.6665ZM79.8666 17.6665V9.66654H80.9333V17.6665H79.8666ZM85.4666 17.6665H84.3999V10.5999H82.1332V9.66654H87.5999V10.5999H85.3332V17.6665H85.4666ZM98.1332 16.5999C97.3332 17.3999 96.3999 17.7999 95.1999 17.7999C93.9999 17.7999 93.0666 17.3999 92.2666 16.5999C91.4666 15.7999 91.0666 14.8665 91.0666 13.6665C91.0666 12.4665 91.4666 11.5332 92.2666 10.7332C93.0666 9.9332 93.9999 9.5332 95.1999 9.5332C96.3999 9.5332 97.3332 9.9332 98.1332 10.7332C98.9332 11.5332 99.3332 12.4665 99.3332 13.6665C99.3332 14.8665 98.9332 15.7999 98.1332 16.5999ZM93.0666 15.9332C93.5999 16.4665 94.3999 16.8665 95.1999 16.8665C95.9999 16.8665 96.7999 16.5999 97.3332 15.9332C97.8665 15.3999 98.2665 14.5999 98.2665 13.6665C98.2665 12.7332 97.9999 11.9332 97.3332 11.3999C96.7999 10.8665 95.9999 10.4665 95.1999 10.4665C94.3999 10.4665 93.5999 10.7332 93.0666 11.3999C92.5332 11.9332 92.1332 12.7332 92.1332 13.6665C92.1332 14.5999 92.3999 15.3999 93.0666 15.9332ZM100.8 17.6665V9.66654H102L105.867 15.9332V9.66654H106.933V17.6665H105.867L101.733 11.1332V17.6665H100.8Z" fill="black"/>
<path d="M90.7999 29.3998C87.5999 29.3998 85.0666 31.7998 85.0666 35.1332C85.0666 38.3332 87.5999 40.8665 90.7999 40.8665C93.9999 40.8665 96.5332 38.4665 96.5332 35.1332C96.5332 31.6665 93.9999 29.3998 90.7999 29.3998ZM90.7999 38.4665C89.0666 38.4665 87.5999 36.9998 87.5999 34.9998C87.5999 32.9998 89.0666 31.5332 90.7999 31.5332C92.5332 31.5332 93.9999 32.8665 93.9999 34.9998C93.9999 36.9998 92.5332 38.4665 90.7999 38.4665ZM78.4 29.3998C75.2 29.3998 72.6666 31.7998 72.6666 35.1332C72.6666 38.3332 75.2 40.8665 78.4 40.8665C81.5999 40.8665 84.1333 38.4665 84.1333 35.1332C84.1333 31.6665 81.5999 29.3998 78.4 29.3998ZM78.4 38.4665C76.6666 38.4665 75.2 36.9998 75.2 34.9998C75.2 32.9998 76.6666 31.5332 78.4 31.5332C80.1333 31.5332 81.5999 32.8665 81.5999 34.9998C81.5999 36.9998 80.1333 38.4665 78.4 38.4665ZM63.6 31.1332V33.5332H69.3333C69.2 34.8665 68.6666 35.9332 68 36.5998C67.2 37.3998 65.8666 38.3332 63.6 38.3332C60 38.3332 57.3333 35.5332 57.3333 31.9332C57.3333 28.3332 60.1333 25.5332 63.6 25.5332C65.4666 25.5332 66.9333 26.3332 68 27.2665L69.7333 25.5332C68.2666 24.1998 66.4 23.1332 63.7333 23.1332C58.9333 23.1332 54.8 27.1332 54.8 31.9332C54.8 36.7332 58.9333 40.7332 63.7333 40.7332C66.4 40.7332 68.2666 39.9332 69.8666 38.1998C71.4666 36.5998 72 34.3332 72 32.5998C72 32.0665 72 31.5332 71.8666 31.1332H63.6ZM124.133 32.9998C123.6 31.6665 122.267 29.3998 119.333 29.3998C116.4 29.3998 114 31.6665 114 35.1332C114 38.3332 116.4 40.8665 119.6 40.8665C122.133 40.8665 123.733 39.2665 124.267 38.3332L122.4 36.9998C121.733 37.9332 120.933 38.5998 119.6 38.5998C118.267 38.5998 117.467 38.0665 116.8 36.8665L124.4 33.6665L124.133 32.9998ZM116.4 34.8665C116.4 32.7332 118.133 31.5332 119.333 31.5332C120.267 31.5332 121.2 32.0665 121.467 32.7332L116.4 34.8665ZM110.133 40.3332H112.667V23.6665H110.133V40.3332ZM106.133 30.5998C105.467 29.9332 104.4 29.2665 103.067 29.2665C100.267 29.2665 97.5999 31.7998 97.5999 34.9998C97.5999 38.1998 100.133 40.5998 103.067 40.5998C104.4 40.5998 105.467 39.9332 106 39.2665H106.133V40.0665C106.133 42.1998 104.933 43.3998 103.067 43.3998C101.6 43.3998 100.533 42.3332 100.267 41.3998L98.1332 42.3332C98.7999 43.7998 100.4 45.6665 103.2 45.6665C106.133 45.6665 108.533 43.9332 108.533 39.7998V29.6665H106.133V30.5998ZM103.2 38.4665C101.467 38.4665 99.9999 36.9998 99.9999 34.9998C99.9999 32.9998 101.467 31.5332 103.2 31.5332C104.933 31.5332 106.267 32.9998 106.267 34.9998C106.267 36.9998 104.933 38.4665 103.2 38.4665ZM135.733 23.6665H129.733V40.3332H132.266V34.0665H135.733C138.533 34.0665 141.2 32.0665 141.2 28.8665C141.2 25.6665 138.533 23.6665 135.733 23.6665ZM135.866 31.6665H132.266V25.9332H135.866C137.733 25.9332 138.8 27.5332 138.8 28.7332C138.666 30.1998 137.6 31.6665 135.866 31.6665ZM151.2 29.2665C149.333 29.2665 147.466 30.0665 146.8 31.7998L149.066 32.7332C149.6 31.7998 150.4 31.5332 151.333 31.5332C152.666 31.5332 153.866 32.3332 154 33.6665V33.7998C153.6 33.5332 152.533 33.1332 151.466 33.1332C149.066 33.1332 146.666 34.4665 146.666 36.8665C146.666 39.1332 148.666 40.5998 150.8 40.5998C152.533 40.5998 153.333 39.7998 154 38.9998H154.133V40.3332H156.533V33.9332C156.266 30.9998 154 29.2665 151.2 29.2665ZM150.933 38.4665C150.133 38.4665 148.933 38.0665 148.933 36.9998C148.933 35.6665 150.4 35.2665 151.6 35.2665C152.666 35.2665 153.2 35.5332 153.866 35.7998C153.6 37.3998 152.266 38.4665 150.933 38.4665ZM164.933 29.6665L162.133 36.8665H162L159.066 29.6665H156.4L160.8 39.7998L158.266 45.3998H160.8L167.6 29.6665H164.933ZM142.533 40.3332H145.066V23.6665H142.533V40.3332Z" fill="black"/>
<path d="M13.8667 10.3335C13.4667 10.7335 13.3333 11.4002 13.3333 12.2002V41.6668C13.3333 42.4668 13.6 43.1335 14 43.5335L14.1333 43.6668L30.6666 27.1335V26.8668L13.8667 10.3335Z" fill="url(#paint0_linear_0_296)"/>
<path d="M35.9999 32.7328L30.5333 27.2662V26.8662L35.9999 21.3995L36.1333 21.5329L42.6666 25.2662C44.5333 26.3329 44.5333 28.0662 42.6666 29.1328L35.9999 32.7328Z" fill="url(#paint1_linear_0_296)"/>
<path d="M36.1334 32.5999L30.5334 26.9999L13.8667 43.6666C14.5333 44.3333 15.4667 44.3333 16.6667 43.7999L36.1334 32.5999Z" fill="url(#paint2_linear_0_296)"/>
<path d="M36.1334 21.3997L16.6667 10.333C15.4667 9.66629 14.5333 9.79962 13.8667 10.4663L30.5334 26.9997L36.1334 21.3997Z" fill="url(#paint3_linear_0_296)"/>
<path opacity="0.2" d="M36 32.4666L16.6667 43.3999C15.6 44.0666 14.6667 43.9333 14 43.3999L13.8667 43.5333L14 43.6666C14.6667 44.1999 15.6 44.3333 16.6667 43.6666L36 32.4666Z" fill="black"/>
<path opacity="0.2" d="M13.8667 43.3999C13.4667 42.9999 13.3333 42.3332 13.3333 41.5332V41.6666C13.3333 42.4666 13.6 43.1333 14 43.5333V43.3999H13.8667ZM42.6667 28.7332L36.0001 32.4666L36.1334 32.5999L42.6667 28.8665C43.6001 28.3332 44.0001 27.6665 44.0001 26.9999C44.0001 27.6665 43.4667 28.1999 42.6667 28.7332Z" fill="black"/>
<path opacity="0.2" d="M16.6667 10.4665L42.6667 25.2666C43.4667 25.7999 44.0001 26.3332 44.0001 26.9999C44.0001 26.3332 43.6001 25.6666 42.6667 25.1332L16.6667 10.3332C14.8 9.26654 13.3333 10.0665 13.3333 12.1999V12.3332C13.3333 10.3332 14.8 9.39987 16.6667 10.4665Z" fill="white"/>
</g>
<defs>
<linearGradient id="paint0_linear_0_296" x1="29.0666" y1="11.9468" x2="6.68932" y2="34.3228" gradientUnits="userSpaceOnUse">
<stop stop-color="#00A0FF"/>
<stop offset="0.007" stop-color="#00A1FF"/>
<stop offset="0.26" stop-color="#00BEFF"/>
<stop offset="0.512" stop-color="#00D2FF"/>
<stop offset="0.76" stop-color="#00DFFF"/>
<stop offset="1" stop-color="#00E3FF"/>
</linearGradient>
<linearGradient id="paint1_linear_0_296" x1="45.112" y1="27.0009" x2="12.8492" y2="27.0009" gradientUnits="userSpaceOnUse">
<stop stop-color="#FFE000"/>
<stop offset="0.409" stop-color="#FFBD00"/>
<stop offset="0.775" stop-color="#FFA500"/>
<stop offset="1" stop-color="#FF9C00"/>
</linearGradient>
<linearGradient id="paint2_linear_0_296" x1="33.1027" y1="30.0612" x2="2.7586" y2="60.4053" gradientUnits="userSpaceOnUse">
<stop stop-color="#FF3A44"/>
<stop offset="1" stop-color="#C31162"/>
</linearGradient>
<linearGradient id="paint3_linear_0_296" x1="9.72932" y1="0.567585" x2="23.28" y2="14.1183" gradientUnits="userSpaceOnUse">
<stop stop-color="#32A071"/>
<stop offset="0.069" stop-color="#2DA771"/>
<stop offset="0.476" stop-color="#15CF74"/>
<stop offset="0.801" stop-color="#06E775"/>
<stop offset="1" stop-color="#00F076"/>
</linearGradient>
<clipPath id="clip0_0_296">
<rect width="180" height="53.352" fill="white" transform="translate(0 0.323975)"/>
</clipPath>
</defs>
</svg>
